<svg width="18" height="18" viewBox="0 0 18 18" fill="none" xmlns="http://www.w3.org/2000/svg">
<path d="M16.9552 1.97C16.9052 0.93 16.0652 0.0900002 15.0352 0.0500002C14.3352 0.0200002 13.6652 0 13.0152 0C7.98519 0 4.49519 0.97 2.55519 2.91C-1.12481 6.59 -0.594809 11.81 2.64519 14.81C2.65519 14.81 2.65519 14.81 2.65519 14.81C4.16519 10.59 7.17519 7.65 10.3252 6.01C10.1152 6.19 5.62519 9.59 4.81519 16.26C5.86519 16.74 7.01519 17.01 8.17519 17.01C10.2252 17.01 12.3352 16.21 14.0952 14.46C16.2852 12.26 17.2352 8.1 16.9552 1.97Z" fill="#E1E5E8"/>
</svg>
